<svg width="32" height="32" viewBox="0 0 32 32" fill="none" xmlns="http://www.w3.org/2000/svg">
<path d="M19.4053 9.52953C20.8728 7.56574 20.481 4.7946 18.5303 3.34003C16.5796 1.88546 13.8087 2.29827 12.3412 4.26206L3.27423 16.3957C1.80677 18.3595 2.1985 21.1306 4.1492 22.5852C6.09989 24.0398 8.87085 23.627 10.3383 21.6632L19.4053 9.52953Z" fill="white" fill-opacity="0.65"/>
<path d="M21.5049 21.6305C22.9724 23.5943 25.7433 24.0071 27.694 22.5526C29.6447 21.098 30.0365 18.3269 28.569 16.3631L19.502 4.2294C18.0346 2.26561 15.2636 1.85281 13.3129 3.30738C11.3622 4.76195 10.9705 7.53308 12.4379 9.49687L21.5049 21.6305Z" fill="white"/>
<path d="M6.90279 29.6572L4.50458 26.0347C4.43028 25.9225 4.3346 25.8264 4.22311 25.7517C4.11161 25.6771 3.98651 25.6255 3.85506 25.6H3.82708H3.76113H3.71516H3.61124H3.56727H3.49932H3.47134C3.33989 25.6255 3.2148 25.6771 3.1033 25.7517C2.9918 25.8264 2.89612 25.9225 2.82182 26.0347L0.423612 29.6572C0.349733 29.7683 0.298313 29.893 0.27229 30.0242C0.246267 30.1553 0.24615 30.2903 0.271945 30.4215C0.297741 30.5527 0.348943 30.6775 0.42263 30.7887C0.496316 30.9 0.591045 30.9956 0.701405 31.07C0.811765 31.1444 0.935594 31.1961 1.06583 31.2223C1.19606 31.2485 1.33014 31.2487 1.46042 31.2227C1.59069 31.1967 1.71461 31.1451 1.8251 31.0709C1.93559 30.9967 2.03048 30.9014 2.10436 30.7902L3.6652 28.4396L5.22604 30.7902C5.37553 31.0131 5.60638 31.1676 5.86836 31.2199C6.13035 31.2723 6.40227 31.2184 6.62499 31.07C6.73536 30.9956 6.83009 30.9 6.90379 30.7888C6.97748 30.6775 7.02868 30.5527 7.05448 30.4215C7.08027 30.2903 7.08016 30.1553 7.05413 30.0242C7.0281 29.893 6.97668 29.7683 6.90279 29.6572Z" fill="white"/>
<path d="M13.2747 30.7018C13.2569 30.6677 12.4469 29.4978 11.6251 28.3097C12.3895 27.206 13.1004 26.1785 13.1182 26.1464C13.1559 26.0782 13.2311 25.6909 12.8628 25.6909H11.6924C11.6366 25.6877 11.5809 25.6993 11.5309 25.7247C11.4809 25.75 11.4383 25.7882 11.4073 25.8354C11.4073 25.8354 11.0924 26.2869 10.6587 26.915L9.90819 25.8354C9.87742 25.7861 9.83417 25.7462 9.78296 25.7197C9.73175 25.6932 9.67446 25.6812 9.61708 25.6848H8.44672C8.08037 25.6848 8.15562 26.0722 8.19325 26.1404C8.20909 26.1725 8.92002 27.2 9.68441 28.3037C8.87051 29.4978 8.05859 30.6597 8.03284 30.7018C7.99522 30.7701 7.91997 31.1574 8.2883 31.1574H9.45866C9.51447 31.1604 9.57009 31.1486 9.62007 31.1233C9.67006 31.098 9.7127 31.0599 9.74382 31.0129L10.6508 29.7044L11.5578 31.0129C11.5888 31.0601 11.6314 31.0982 11.6814 31.1236C11.7314 31.1489 11.7871 31.1606 11.8429 31.1574H13.0133C13.3796 31.1493 13.3123 30.762 13.2747 30.7018Z" fill="white"/>
<path d="M17.0057 25.5157C15.3492 25.5157 14.2317 26.6863 14.2317 28.4281C14.2317 30.1698 15.3195 31.3263 17.0057 31.3263C18.6919 31.3263 19.7896 30.1617 19.7896 28.4281C19.7896 26.6601 18.6978 25.5157 17.0057 25.5157ZM18.1093 28.4281C18.1093 29.9518 17.2791 29.9518 17.0057 29.9518C16.7322 29.9518 15.9179 29.9518 15.9179 28.4281C15.9179 27.3927 16.2726 26.8902 17.0057 26.8902C17.7388 26.8902 18.1093 27.3927 18.1093 28.4281Z" fill="white"/>
<path d="M23.2618 25.6H23.2283C21.8491 25.6 20.7162 26.4549 20.7162 27.9722V31.0528C20.7146 31.0771 20.7179 31.1016 20.726 31.1246C20.7341 31.1475 20.7468 31.1685 20.7633 31.1863C20.7798 31.204 20.7997 31.2181 20.8218 31.2275C20.8438 31.237 20.8676 31.2418 20.8916 31.2414H22.1723C22.1993 31.2434 22.2264 31.2396 22.2519 31.2304C22.2774 31.2212 22.3008 31.2067 22.3206 31.1879C22.3404 31.169 22.3561 31.1462 22.3669 31.1209C22.3776 31.0956 22.3832 31.0683 22.3831 31.0407V28.2311C22.3831 27.2176 22.9624 27.0751 23.2421 27.0751C23.5219 27.0751 24.1012 27.2176 24.1012 28.2311V31.0407C24.1011 31.0685 24.1067 31.096 24.1175 31.1214C24.1284 31.1469 24.1443 31.1698 24.1643 31.1886C24.1843 31.2075 24.208 31.2219 24.2337 31.231C24.2595 31.2401 24.2868 31.2437 24.314 31.2414H25.5927C25.6167 31.2418 25.6404 31.237 25.6625 31.2275C25.6846 31.2181 25.7045 31.204 25.721 31.1863C25.7374 31.1685 25.7501 31.1475 25.7582 31.1246C25.7663 31.1016 25.7697 31.0771 25.768 31.0528V27.9702C25.774 26.4549 24.6351 25.6 23.2618 25.6Z" fill="white"/>
<path d="M26.7021 29.5454C26.7021 29.5454 26.642 29.2912 26.8666 29.2912H28.0698C28.1116 29.2869 28.1536 29.2977 28.1881 29.3218C28.2227 29.3458 28.2476 29.3815 28.2583 29.4223C28.3325 29.7674 28.6032 30.0115 29.1928 30.0276C29.7824 30.0438 30.0391 29.9005 30.0391 29.5676C30.0391 29.4828 30.009 29.3557 29.7543 29.2286C29.4355 29.105 29.1039 29.0177 28.7657 28.9683C27.4602 28.7242 26.7984 28.1612 26.7984 27.3158C26.79 27.0388 26.8564 26.7647 26.9906 26.5227C27.1248 26.2807 27.3218 26.0799 27.5605 25.9417C27.5605 25.9417 28.1079 25.526 29.2249 25.5159C30.4683 25.5038 31.4008 26.212 31.5391 26.9848C31.5439 27.0095 31.5432 27.0348 31.537 27.0592C31.5308 27.0835 31.5193 27.1061 31.5034 27.1254C31.4875 27.1447 31.4675 27.1602 31.4449 27.1708C31.4223 27.1814 31.3976 27.1868 31.3727 27.1866H30.0572C30.0227 27.187 29.9886 27.1795 29.9574 27.1649C29.9261 27.1502 29.8985 27.1287 29.8767 27.1019L29.8566 27.0777C29.7643 26.9837 29.6529 26.9109 29.53 26.8642C29.4071 26.8176 29.2757 26.7981 29.1447 26.8073C28.513 26.8073 28.513 27.0615 28.513 27.1463C28.513 27.231 28.5551 27.3904 28.9141 27.5236C29.2682 27.6327 29.6293 27.717 29.995 27.7758C31.1581 28.0018 31.7457 28.5385 31.7457 29.3678C31.7594 29.6727 31.6924 29.9757 31.5515 30.2459C31.4105 30.516 31.2007 30.7436 30.9435 30.9054C30.4281 31.1963 29.8437 31.3406 29.253 31.3231C28.6424 31.3507 28.037 31.1993 27.5103 30.8872C27.2835 30.7393 27.0933 30.5411 26.9542 30.3078C26.8152 30.0746 26.731 29.8124 26.7082 29.5414C26.7082 29.5414 26.7082 29.5232 26.7082 29.5131" fill="white"/>
</svg>
